<svg id="Layer_1" data-name="Layer 1" xmlns="http://www.w3.org/2000/svg" viewBox="0 0 1913.13 731.89">
  <defs>
    <style>
      .cls-1 {
        fill: #020043;
      }

      .cls-2, .cls-4 {
        fill: #fff;
        stroke: #fff;
      }

      .cls-2, .cls-4, .cls-6, .cls-7 {
        stroke-miterlimit: 10;
      }

      .cls-2 {
        stroke-width: 6px;
      }

      .cls-3 {
        fill: #0f0054;
      }

      .cls-5 {
        fill: #0b0046;
      }

      .cls-6 {
        fill: #9a0680;
        stroke-width: 4px;
      }

      .cls-6, .cls-7 {
        stroke: #000;
      }

      .cls-7 {
        fill: #79018c;
        stroke-width: 3px;
      }
    </style>
  </defs>
  <g>
    <polygon class="cls-1" points="355.91 129.51 677.17 727.61 4.37 729.38 355.91 129.51"/>
    <path d="M355.82,176.73,673,767.23l-332.34.88L8.74,769,355.82,176.73m.18-10.22L0,774l340.67-.89,340.67-.9L356,166.51Z" transform="translate(0 -42.11)"/>
  </g>
  <polygon class="cls-2" points="485.21 421.5 348.93 171.03 162.31 515.54 276.06 392.38 260.06 470.92 316.94 385.24 350.97 515.54 348.93 385.24 443.13 485.2 388.03 367.39 519.09 503.94 485.21 421.5"/>
  <g>
    <polygon class="cls-3" points="904.73 166.24 1191.91 726.27 592.16 726.92 904.73 166.24"/>
    <path d="M904.63,213.64l283.19,552.24L892,766.2l-295.53.32L904.63,213.64m.19-10.6L587.9,771.53,892,771.2l304-.33L904.82,203Z" transform="translate(0 -42.11)"/>
  </g>
  <polygon class="cls-4" points="792.5 445.18 909.33 210.59 1069.31 533.26 971.79 417.9 985.51 491.47 936.75 411.22 907.58 533.26 909.33 411.22 828.57 504.84 875.8 394.5 763.46 522.4 792.5 445.18"/>
  <g>
    <polygon class="cls-5" points="636.88 10.42 1010.22 724.21 228.34 726.32 636.88 10.42"/>
    <path d="M636.69,63,1002,761.34l-382.91,1-382.1,1L636.69,63m.38-20.84L219.72,773.45l399.37-1.08,399.38-1.08L637.07,42.11Z" transform="translate(0 -42.11)"/>
  </g>
  <polygon class="cls-4" points="466.67 364.69 626.43 63.16 845.22 477.9 711.86 329.63 730.62 424.18 663.94 321.03 624.04 477.9 626.43 321.03 516 441.37 580.6 299.54 426.96 463.94 466.67 364.69"/>
  <g>
    <polygon class="cls-6" points="1132.33 381.23 1132.33 314.36 1115.83 381.23 1094.02 381.23 1079.45 316.62 1079.45 381.23 1054.35 381.23 1054.35 269.47 1094.18 269.47 1107.08 325.21 1121.58 269.47 1160.33 269.47 1160.33 381.23 1132.33 381.23"/>
    <path class="cls-6" d="M1057.34,314.58h34.46l15.11,65.32,17-65.32h33.43V420.34h-22V331.78l-21.85,88.56h-17.06l-20-88.56v88.56h-19.11Z" transform="translate(0 -42.11)"/>
    <path class="cls-6" d="M1224.21,423.34l-5.34-21.85h-25.38l-5.24,21.85h-28l33.93-111.76h28.12l32.27,111.76Zm-11.24-46-6.9-27.68-6.62,27.68Z" transform="translate(0 -42.11)"/>
    <path class="cls-6" d="M1196.4,314.58h23.65l30.53,105.76h-24l-5.33-21.85h-30.11l-5.24,21.85H1164.3Zm20.41,65.78L1206,337l-10.36,43.33Z" transform="translate(0 -42.11)"/>
    <path class="cls-6" d="M1293.73,425c-13.1,0-23.65-5.19-31.33-15.42-7.49-10-11.29-23.43-11.29-40,0-17.95,3.72-32.43,11.06-43,7.58-11,18.88-16.52,33.59-16.52,23.55,0,36.94,13.1,39.78,38.93l.32,2.84-27.09,4.37-.33-3.15c-1.91-18.08-9.66-18.08-12.21-18.08-4.19,0-7.5,2-10.09,6.24-2.85,4.61-4.29,13.86-4.29,27.48,0,12.05,1.41,20.53,4.2,25.2a11.92,11.92,0,0,0,11,6.28c4.55,0,10.5-1.63,11.32-15h-15.88V360.93h43.11v62.41h-15.28l-2.1-8.32C1312.08,421.63,1303.88,425,1293.73,425Z" transform="translate(0 -42.11)"/>
    <path class="cls-6" d="M1295.45,363.93h37.11v56.41h-9.94l-3.06-12.09Q1310.95,422,1293.73,422q-18.26,0-28.94-14.22t-10.68-38.24q0-26.1,10.53-41.33T1295.76,313q32.81,0,36.8,36.26l-21.14,3.41q-2.19-20.76-15.19-20.76-7.9,0-12.64,7.67t-4.74,29.05q0,19,4.62,26.73a14.83,14.83,0,0,0,13.54,7.75q14.34,0,14.41-21h-16Z" transform="translate(0 -42.11)"/>
    <polygon class="cls-6" points="1398.78 381.23 1371.19 316.39 1371.19 381.23 1347.02 381.23 1347.02 269.47 1378.09 269.47 1400.58 323.23 1400.58 269.47 1424.74 269.47 1424.74 381.23 1398.78 381.23"/>
    <path class="cls-6" d="M1350,314.58h26.08l27.48,65.7v-65.7h18.16V420.34h-21l-32.57-76.55v76.55H1350Z" transform="translate(0 -42.11)"/>
    <rect class="cls-6" x="1438" y="269.47" width="29.49" height="111.76"/>
    <path class="cls-6" d="M1441,314.58h23.49V420.34H1441Z" transform="translate(0 -42.11)"/>
    <polygon class="cls-6" points="1481.69 381.23 1481.69 269.47 1551.12 269.47 1551.12 293.6 1511.18 293.6 1511.18 315.26 1541.96 315.26 1541.96 339.39 1511.18 339.39 1511.18 381.23 1481.69 381.23"/>
    <path class="cls-6" d="M1484.7,314.58h63.42v18.13h-39.94v27.66H1539V378.5h-30.78v41.84H1484.7Z" transform="translate(0 -42.11)"/>
    <rect class="cls-6" x="1552.71" y="269.47" width="29.49" height="111.76"/>
    <path class="cls-6" d="M1555.71,314.58h23.49V420.34h-23.49Z" transform="translate(0 -42.11)"/>
    <path class="cls-6" d="M1636,425c-14.12,0-25.06-5.3-32.51-15.75-7.23-10.13-10.9-24.14-10.9-41.64,0-17.66,3.64-31.74,10.81-41.87,7.4-10.46,18.48-15.76,32.91-15.76,24,0,37.29,14.7,39.4,43.69l.22,3-27.55,2-.11-3.11c-.76-20.66-9.13-20.66-11.88-20.66-3.84,0-6.73,1.93-9.1,6.08-1.81,3.15-4,10.55-4,27.95,0,12.45,1.22,21,3.62,25.41,2.15,3.93,5.12,5.76,9.35,5.76,2.51,0,10.14,0,12.13-18.55l.3-2.85,27.57,1.68-.21,3c-.82,12.11-4.8,22.15-11.81,29.83S1647.6,425,1636,425Z" transform="translate(0 -42.11)"/>
    <path class="cls-6" d="M1651.39,381.83l21.69,1.32q-1.17,17.21-11,28T1636,422q-19.74,0-30.07-14.49t-10.34-39.9q0-25.65,10.26-40.14T1636.28,313q33.43,0,36.41,40.91l-21.46,1.55q-.86-23.55-14.87-23.55-7.36,0-11.71,7.59t-4.34,29.44q0,19.53,4,26.85t12,7.32Q1649.12,403.06,1651.39,381.83Z" transform="translate(0 -42.11)"/>
    <polygon class="cls-6" points="1683.86 381.23 1683.86 269.47 1754.85 269.47 1754.85 293.6 1713.35 293.6 1713.35 312.16 1745.61 312.16 1745.61 336.29 1713.35 336.29 1713.35 356.33 1754.85 356.33 1754.85 381.23 1683.86 381.23"/>
    <path class="cls-6" d="M1686.86,314.58h65v18.13h-41.5v24.56h32.26V375.4h-32.26v26h41.5v18.9h-65Z" transform="translate(0 -42.11)"/>
    <polygon class="cls-6" points="1811.25 381.23 1783.66 316.39 1783.66 381.23 1759.5 381.23 1759.5 269.47 1790.57 269.47 1813.05 323.23 1813.05 269.47 1837.22 269.47 1837.22 381.23 1811.25 381.23"/>
    <path class="cls-6" d="M1762.5,314.58h26.07l27.48,65.7v-65.7h18.17V420.34h-21l-32.57-76.55v76.55H1762.5Z" transform="translate(0 -42.11)"/>
    <polygon class="cls-6" points="1859.8 381.23 1859.8 295.31 1838.5 295.31 1838.5 269.47 1911.13 269.47 1911.13 295.31 1889.29 295.31 1889.29 381.23 1859.8 381.23"/>
    <path class="cls-6" d="M1844.5,314.58h66.63v19.83h-21.84v85.93H1865.8V334.41h-21.3Z" transform="translate(0 -42.11)"/>
  </g>
  <g>
    <path class="cls-7" d="M1101.84,579.41V474.15h28.92c8.35,0,15,.78,19.63,2.32,4.95,1.64,9.14,5.32,12.44,10.94s4.86,12.37,4.86,20.41c0,7.7-1.31,14.2-3.91,19.31a24.78,24.78,0,0,1-11.14,11.38c-4.69,2.31-11.55,3.44-21,3.44h-5.26v37.46Zm28.92-58.82c4.82,0,7.89-1.09,9.12-3.24,1.44-2.51,2.17-5.87,2.17-10a17.89,17.89,0,0,0-1.65-8.32,7.44,7.44,0,0,0-3.37-3.62,17.71,17.71,0,0,0-6.27-.86h-4.37v26.05Z" transform="translate(0 -42.11)"/>
    <path class="cls-7" d="M1103.84,476.15h26.92q12.26,0,19,2.22t11.33,10.05q4.59,7.83,4.59,19.4,0,11.13-3.7,18.4a22.68,22.68,0,0,1-10.24,10.5q-6.54,3.22-20.1,3.23h-7.26v37.46h-20.55Zm20.55,16.39v30.05h6.37q8.41,0,10.85-4.24t2.44-11a19.62,19.62,0,0,0-1.89-9.26c-1.25-2.35-2.71-3.87-4.38-4.54a19.72,19.72,0,0,0-7-1Z" transform="translate(0 -42.11)"/>
    <path class="cls-7" d="M1217.41,579.41l-12.51-40.06h-6.79v40.06h-24.55V474.15h31.38a78.5,78.5,0,0,1,13.49.88,23.22,23.22,0,0,1,10.1,5,26.85,26.85,0,0,1,7.89,11,40.56,40.56,0,0,1,2.79,15.33c0,12.66-4.27,21.91-12.69,27.53l17.65,45.47ZM1205.15,519c4.31,0,10-1.3,10-12.61a15.15,15.15,0,0,0-1.53-7.31,8.13,8.13,0,0,0-3.27-3.54c-.89-.43-2.66-.95-6.07-.95h-6.22V519Z" transform="translate(0 -42.11)"/>
    <path class="cls-7" d="M1175.56,476.15h29.38a76.11,76.11,0,0,1,13.12.85,21,21,0,0,1,9.21,4.6,24.75,24.75,0,0,1,7.3,10.24,38.32,38.32,0,0,1,2.64,14.57q0,19-13.16,26.71l17.2,44.29h-22.37l-12.51-40.06h-10.26v40.06h-20.55Zm20.55,16.39V521h9q12.06,0,12-14.61a17,17,0,0,0-1.78-8.27,10,10,0,0,0-4.14-4.38,16.38,16.38,0,0,0-7-1.15Z" transform="translate(0 -42.11)"/>
    <path class="cls-7" d="M1282.07,581c-11.9,0-21-4.79-27.09-14.24-5.89-9.16-8.88-22.61-8.88-40,0-35.93,12.08-54.15,35.91-54.15,11.71,0,20.77,4.69,26.94,14,6,9,9,22.52,9,40.2C1318,562.72,1305.9,581,1282.07,581Zm-.06-86.28c-3.45,0-5.83,1.78-7.48,5.62-1.85,4.27-2.79,13.17-2.79,26.43,0,13,.93,21.88,2.76,26.32,1.64,4,4,5.81,7.51,5.81s5.84-1.77,7.52-5.56c1.86-4.22,2.81-13.16,2.81-26.57s-.94-22.21-2.78-26.47C1287.9,496.46,1285.5,494.69,1282,494.69Z" transform="translate(0 -42.11)"/>
    <path class="cls-7" d="M1316,526.74q0,52.23-33.91,52.23-16.85,0-25.41-13.32t-8.56-38.91q0-52.15,33.91-52.15,16.58,0,25.27,13.05T1316,526.74Zm-21.64,0q0-20.47-2.95-27.26t-9.38-6.79q-6.37,0-9.32,6.82t-3,27.23q0,20,2.92,27.08t9.35,7q6.36,0,9.35-6.75T1294.34,526.74Z" transform="translate(0 -42.11)"/>
    <path class="cls-7" d="M1328.3,579.41V474.15h33.92c7.78,0,13.53.66,17.59,2,4.26,1.44,7.85,4.58,10.67,9.33s4.15,10.46,4.15,17.27c0,10.37-3.56,17.68-10.61,21.8,8.73,4.83,13.15,13.17,13.15,24.86,0,6.94-1.56,12.9-4.63,17.73s-7,8.21-11.67,9.86c-4.48,1.6-10.58,2.38-18.65,2.38Zm31.8-21.36c8.31,0,12.18-3.57,12.18-11.24,0-4.28-1-7.26-2.83-8.86s-5.12-2.53-9.35-2.53H1352v22.63Zm-3.43-43c7.33,0,9.94-1.61,10.84-3a13.53,13.53,0,0,0,2.23-7.72,11.69,11.69,0,0,0-2.2-7c-1.29-1.8-4.52-2.76-9.36-2.76H1352V515Z" transform="translate(0 -42.11)"/>
    <path class="cls-7" d="M1330.3,476.15h31.92q11.23,0,17,1.92t9.59,8.46q3.87,6.53,3.87,16.25,0,17-13.35,21.81,15.88,6.09,15.89,24.85,0,9.87-4.32,16.66t-10.65,9q-6.33,2.26-18,2.26H1330.3ZM1350,517h6.64q9.93,0,12.5-3.86a15.56,15.56,0,0,0,2.57-8.82,13.78,13.78,0,0,0-2.57-8.2q-2.57-3.6-11-3.6H1350Zm0,43h10.07q14.18,0,14.18-13.24,0-7.37-3.53-10.38c-2.35-2-5.91-3-10.65-3H1350Z" transform="translate(0 -42.11)"/>
    <path class="cls-7" d="M1439.35,581c-11.91,0-21-4.79-27.1-14.24-5.89-9.16-8.87-22.61-8.87-40,0-35.93,12.08-54.15,35.9-54.15,11.71,0,20.78,4.69,26.94,14,6,9,9,22.52,9,40.2C1475.26,562.72,1463.18,581,1439.35,581Zm-.07-86.28c-3.45,0-5.82,1.78-7.48,5.62-1.84,4.27-2.78,13.17-2.78,26.43,0,13,.93,21.88,2.76,26.32,1.64,4,4,5.81,7.5,5.81s5.85-1.77,7.52-5.56c1.87-4.22,2.81-13.16,2.81-26.57s-.93-22.21-2.78-26.47C1445.18,496.46,1442.78,494.69,1439.28,494.69Z" transform="translate(0 -42.11)"/>
    <path class="cls-7" d="M1473.26,526.74q0,52.23-33.91,52.23-16.85,0-25.41-13.32t-8.56-38.91q0-52.15,33.9-52.15,16.58,0,25.28,13.05T1473.26,526.74Zm-21.65,0q0-20.47-2.94-27.26t-9.39-6.79q-6.36,0-9.31,6.82t-3,27.23q0,20,2.91,27.08t9.35,7q6.38,0,9.35-6.75T1451.61,526.74Z" transform="translate(0 -42.11)"/>
    <polygon class="cls-7" points="1485.58 537.3 1485.58 432.04 1510.13 432.04 1510.13 514.31 1540.27 514.31 1540.27 537.3 1485.58 537.3"/>
    <path class="cls-7" d="M1487.58,476.15h20.54v82.27h30.14v19h-50.68Z" transform="translate(0 -42.11)"/>
    <rect class="cls-7" x="1545.31" y="432.04" width="24.55" height="105.26"/>
    <path class="cls-7" d="M1547.31,476.15h20.55V577.41h-20.55Z" transform="translate(0 -42.11)"/>
    <polygon class="cls-7" points="1627.8 537.3 1602.67 472.67 1602.67 537.3 1582.78 537.3 1582.78 432.04 1608.96 432.04 1629.63 486.11 1629.63 432.04 1649.52 432.04 1649.52 537.3 1627.8 537.3"/>
    <path class="cls-7" d="M1584.78,476.15h22.81l24,62.91V476.15h15.89V577.41h-18.36l-28.49-73.3v73.3h-15.89Z" transform="translate(0 -42.11)"/>
    <path class="cls-7" d="M1695.68,581c-11.29,0-20.36-4.87-27-14.48-6.44-9.37-9.7-22.07-9.7-37.75,0-17,3.2-30.65,9.52-40.64,6.5-10.29,16.23-15.51,28.92-15.51,20.24,0,31.75,12.28,34.18,36.52l.19,1.84-22.45,4-.21-2.16c-1.75-18.07-8.94-18.07-11.3-18.07-3.87,0-6.92,2.07-9.32,6.33-2.58,4.57-3.89,13.59-3.89,26.83,0,11.73,1.28,20,3.8,24.64,2.34,4.29,5.64,6.38,10.1,6.38,2.5,0,9.94,0,10.56-16.11h-13.93V521.4h36.46v58h-12.29l-2-8.63C1712.09,577.55,1704.81,581,1695.68,581Z" transform="translate(0 -42.11)"/>
    <path class="cls-7" d="M1697.19,523.4h32.46v54H1721l-2.68-11.57q-7.53,13.13-22.6,13.13-16,0-25.31-13.62T1661,528.74q0-25,9.21-39.57t27.23-14.58q28.69,0,32.19,34.72l-18.49,3.26q-1.92-19.88-13.29-19.88-6.91,0-11.06,7.34t-4.15,27.82q0,18.18,4,25.6t11.85,7.42q12.53,0,12.6-20.11h-14Z" transform="translate(0 -42.11)"/>
    <path class="cls-7" d="M1777,581c-11.29,0-20.36-4.87-27-14.48-6.44-9.37-9.7-22.07-9.7-37.75,0-17,3.2-30.65,9.52-40.64,6.5-10.29,16.23-15.51,28.92-15.51,20.24,0,31.75,12.28,34.18,36.52l.19,1.84-22.45,4-.21-2.16c-1.75-18.07-8.94-18.07-11.3-18.07-3.87,0-6.92,2.07-9.32,6.33-2.58,4.57-3.89,13.59-3.89,26.83,0,11.73,1.28,20,3.8,24.64,2.34,4.29,5.64,6.38,10.1,6.38,2.5,0,9.94,0,10.56-16.11H1776.5V521.4H1813v58h-12.29l-2-8.63C1793.4,577.55,1786.12,581,1777,581Z" transform="translate(0 -42.11)"/>
    <path class="cls-7" d="M1778.5,523.4H1811v54h-8.7l-2.67-11.57Q1792.06,579,1777,579q-16,0-25.31-13.62t-9.35-36.61q0-25,9.21-39.57t27.23-14.58q28.7,0,32.19,34.72l-18.49,3.26q-1.92-19.88-13.29-19.88-6.92,0-11.06,7.34T1764,527.85q0,18.18,4,25.6t11.86,7.42q12.53,0,12.6-20.11h-14Z" transform="translate(0 -42.11)"/>
    <path class="cls-7" d="M1857.61,581c-11.9,0-21-4.79-27.09-14.24-5.9-9.16-8.88-22.61-8.88-40,0-35.93,12.08-54.15,35.9-54.15,11.71,0,20.78,4.69,26.94,14,6,9,9,22.52,9,40.2C1893.52,562.72,1881.44,581,1857.61,581Zm-.07-86.28c-3.45,0-5.82,1.78-7.48,5.62-1.84,4.27-2.78,13.17-2.78,26.43,0,13,.93,21.88,2.76,26.32,1.64,4,4,5.81,7.5,5.81s5.85-1.77,7.52-5.56c1.87-4.22,2.81-13.16,2.81-26.57s-.93-22.21-2.78-26.47C1863.44,496.46,1861,494.69,1857.54,494.69Z" transform="translate(0 -42.11)"/>
    <path class="cls-7" d="M1891.52,526.74q0,52.23-33.91,52.23-16.84,0-25.41-13.32t-8.56-38.91q0-52.15,33.9-52.15,16.57,0,25.28,13.05T1891.52,526.74Zm-21.65,0q0-20.47-2.94-27.26c-2-4.53-5.09-6.79-9.39-6.79s-7.35,2.27-9.31,6.82-3,13.63-3,27.23q0,20,2.91,27.08t9.35,7q6.38,0,9.35-6.75T1869.87,526.74Z" transform="translate(0 -42.11)"/>
  </g>
</svg>
