<svg id="Layer_1" data-name="Layer 1" xmlns="http://www.w3.org/2000/svg" viewBox="0 0 1196 731.89">
  <defs>
    <style>
      .cls-1 {
        fill: #020043;
      }

      .cls-2, .cls-4 {
        fill: #fff;
        stroke: #fff;
        stroke-miterlimit: 10;
      }

      .cls-2 {
        stroke-width: 6px;
      }

      .cls-3 {
        fill: #0f0054;
      }

      .cls-5 {
        fill: #0b0046;
      }
    </style>
  </defs>
  <g>
    <polygon class="cls-1" points="355.91 129.51 677.17 727.61 4.37 729.38 355.91 129.51"/>
    <path d="M664.82,233.73,982,824.23l-332.34.88L317.74,826,664.82,233.73m.18-10.22L309,831l340.67-.89,340.67-.9L665,223.51Z" transform="translate(-309 -99.11)"/>
  </g>
  <polygon class="cls-2" points="485.21 421.5 348.93 171.03 162.31 515.54 276.06 392.38 260.06 470.92 316.94 385.24 350.97 515.54 348.93 385.24 443.13 485.2 388.03 367.39 519.09 503.94 485.21 421.5"/>
  <g>
    <polygon class="cls-3" points="904.73 166.24 1191.91 726.27 592.16 726.92 904.73 166.24"/>
    <path d="M1213.63,270.64l283.19,552.24L1201,823.2l-295.53.32,308.21-552.88m.19-10.6L896.9,828.53,1201,828.2l304-.33L1213.82,260Z" transform="translate(-309 -99.11)"/>
  </g>
  <polygon class="cls-4" points="792.5 445.18 909.33 210.59 1069.31 533.26 971.79 417.9 985.51 491.47 936.75 411.22 907.58 533.26 909.33 411.22 828.57 504.84 875.8 394.5 763.46 522.4 792.5 445.18"/>
  <g>
    <polygon class="cls-5" points="636.88 10.42 1010.22 724.21 228.34 726.32 636.88 10.42"/>
    <path d="M945.69,120,1311,818.34l-382.91,1-382.1,1L945.69,120m.38-20.84L528.72,830.45l399.37-1.08,399.38-1.08L946.07,99.11Z" transform="translate(-309 -99.11)"/>
  </g>
  <polygon class="cls-4" points="466.67 364.69 626.43 63.16 845.22 477.9 711.86 329.63 730.62 424.18 663.94 321.03 624.04 477.9 626.43 321.03 516 441.37 580.6 299.54 426.96 463.94 466.67 364.69"/>
</svg>
